<?xml version="1.0" standalone="no"?><!DOCTYPE svg PUBLIC "-//W3C//DTD SVG 1.1//EN" "http://www.w3.org/Graphics/SVG/1.1/DTD/svg11.dtd"><svg t="1576656445458" class="icon" viewBox="0 0 1024 1024" version="1.1" xmlns="http://www.w3.org/2000/svg" p-id="853" xmlns:xlink="http://www.w3.org/1999/xlink" width="128" height="128"><defs><style type="text/css"></style></defs><path d="M512.96 145.38666667c26.66666667 0 62.72 10.02666667 83.84 38.08 20.05333333 26.77333333 31.14666667 75.73333333 31.14666667 137.92 0 23.14666667 8.32 39.14666667 13.54666666 47.89333333 0 0.42666667 0 0.85333333-0.10666666 1.28-0.21333333 2.45333333-0.42666667 3.84-0.64 4.58666667-0.53333333 0.74666667-1.38666667 1.81333333-2.02666667 2.77333333-5.65333333 7.57333333-16.32 21.76-21.01333333 43.09333333l-0.53333334 2.24c-6.29333333 28.58666667-8 34.88-14.29333333 42.88-2.34666667 3.09333333-4.69333333 5.33333333-9.38666667 9.6-5.76 5.44-13.01333333 12.16-20.90666666 21.76-4.69333333 5.76-10.66666667 14.72-16.42666667 33.6-3.52 11.62666667-5.86666667 24.21333333-6.93333333 36.48-3.41333333 40.10666667 6.61333333 77.33333333 29.12 107.62666667 26.24 35.52 72.53333333 57.92 106.66666666 70.50666667 21.65333333 8 40.53333333 14.08 55.68 19.09333333 42.66666667 13.97333333 49.6 17.17333333 56.53333334 26.34666667 6.29333333 8.42666667 10.24 24.10666667 10.77333333 43.09333333 0.21333333 6.29333333 0 12.26666667-0.42666667 17.70666667-24.32 7.89333333-68.69333333 18.34666667-146.45333333 26.56-72.53333333 7.57333333-136.74666667 9.38666667-145.81333333 9.38666666-10.77333333-0.10666667-80.64-4.48-155.30666667-12.37333333-80.85333333-8.53333333-123.41333333-16.42666667-144.85333333-21.54666667-0.42666667-4.8-0.85333333-10.13333333-0.85333334-15.78666666-0.10666667-13.86666667 1.49333333-33.17333333 9.28-48.42666667 7.36-5.22666667 27.52-14.50666667 48-19.30666667 41.38666667-9.70666667 88.42666667-24.10666667 151.89333334-63.25333333 18.34666667-11.30666667 32.53333333-26.13333333 42.13333333-44.16 7.46666667-13.97333333 10.88-27.41333333 13.44-37.22666667 0.32-1.06666667 0.53333333-2.24 0.85333333-3.41333333 4.69333333-18.02666667 6.61333333-36.16 5.76-53.65333333-1.06666667-20.16-5.86666667-39.14666667-14.18666666-56.32-11.41333333-23.57333333-28.48-37.97333333-39.78666667-47.57333334-1.38666667-1.17333333-2.98666667-2.56-4.37333333-3.73333333-0.64-2.13333333-1.38666667-4.8-1.92-7.04-4.05333333-15.25333333-10.24-38.29333333-27.62666667-59.52-4.48-5.44-6.72-9.06666667-7.89333333-11.09333333 2.34666667-6.50666667 5.97333333-16.96 7.78666666-31.04 1.6-12.37333333 0.96-21.33333333 0.53333334-27.2-0.10666667-1.81333333-0.21333333-2.77333333-0.21333334-3.62666667 0-54.72 12.26666667-104.85333333 32.74666667-133.97333333 9.6-13.65333333 21.86666667-24.21333333 36.37333333-31.46666667 13.97333333-7.14666667 29.76-10.77333333 45.86666667-10.77333333m0-68.26666667c-52.69333333 0-104.53333333 23.46666667-138.02666667 70.93333333-30.72 43.73333333-45.22666667 108.58666667-45.22666666 173.33333334 0 8.74666667 1.38666667 13.12 0.21333333 22.4-2.02666667 16.32-9.17333333 22.4-8.96 40.10666666 0.21333333 16.21333333 6.50666667 32.53333333 24 53.86666667 15.89333333 19.41333333 13.01333333 48.10666667 28.05333333 65.49333333 11.62666667 13.44 28.90666667 22.08 37.12 38.82666667 8.96 18.56 9.6 40.96 3.84 63.04-4.48 17.38666667-7.04 32-26.13333333 43.84-58.88 36.26666667-100.58666667 47.57333333-131.73333333 54.93333333-28.48 6.72-75.30666667 24.42666667-89.06666667 47.25333334-35.94666667 59.94666667-15.25333333 142.18666667-11.84 149.76 14.93333333 33.06666667 333.65333333 55.14666667 360.21333333 55.14666666 20.69333333 0 269.97333333-7.36 351.89333334-55.68 3.73333333-2.24 25.6-95.78666667-15.36-150.29333333-27.84-37.12-62.4-38.82666667-143.14666667-68.58666667-27.84-10.24-60.58666667-26.98666667-75.41333333-47.04-30.08-40.53333333-9.92-91.2-7.68-94.08 10.24-12.58666667 20.16-18.34666667 31.25333333-32.53333333 16.64-21.44 20.58666667-40.74666667 27.52-72.32 3.94666667-18.13333333 22.08-21.22666667 25.06666667-59.94666667 2.77333333-37.22666667-13.22666667-37.65333333-13.22666667-54.29333333 0-67.41333333-11.62666667-134.72-44.8-178.88-33.28-44.05333333-87.89333333-65.28-138.56-65.28z" p-id="854"></path><path d="M948.90666667 852.90666667c-10.98666667 0-21.65333333-5.22666667-28.26666667-14.93333334-6.82666667-10.13333333-7.57333333-22.50666667-2.98666667-32.85333333 3.2-13.01333333 8.21333333-59.94666667-7.68-84.37333333-7.68-11.73333333-15.46666667-15.04-44.16-25.81333334-10.66666667-4.05333333-22.82666667-8.53333333-37.33333333-14.72-17.70666667-7.46666667-49.81333333-23.89333333-66.34666667-49.49333333-12.48-19.30666667-18.02666667-43.09333333-16.10666666-68.58666667 0.85333333-10.77333333 4.16-32 11.73333333-42.66666666 4.58666667-6.50666667 9.06666667-11.30666667 12.69333333-15.14666667 3.2-3.41333333 5.54666667-5.97333333 8-9.6 6.72-9.92 8.53333333-18.45333333 13.01333334-41.70666667l0.32-1.70666666c2.24-11.94666667 7.57333333-19.94666667 10.98666666-25.28 3.2-4.8 4.69333333-7.25333333 5.44-17.17333334 0.53333333-8.21333333-0.10666667-9.6-1.6-12.48-2.56-4.90666667-7.36-14.08-7.36-27.52 0-53.22666667-8.74666667-95.89333333-24.74666666-120.42666666-11.41333333-17.38666667-28.90666667-29.44-49.38666667-33.70666667-18.45333333-3.84-30.29333333-21.97333333-26.45333333-40.42666667 3.84-18.45333333 21.97333333-30.29333333 40.42666666-26.45333333 38.29333333 8 71.25333333 30.50666667 92.58666667 63.14666667 23.36 35.84 35.41333333 87.78666667 35.84 154.34666666 5.22666667 10.13333333 10.45333333 23.14666667 8.85333333 47.78666667-1.70666667 25.49333333-9.28 39.14666667-16.32 49.92-0.42666667 0.64-0.96 1.6-1.38666666 2.13333333l-0.10666667 0.42666667c-4.8 25.17333333-8.64 45.12-23.46666667 67.09333333-5.54666667 8.10666667-10.66666667 13.65333333-14.82666666 18.02666667-1.70666667 1.81333333-3.09333333 3.30666667-4.26666667 4.69333333-2.02666667 7.68-4.58666667 25.28 3.62666667 37.97333334 3.62666667 5.65333333 16.32 15.46666667 35.52 23.57333333 13.22666667 5.65333333 24.64 9.92 34.77333333 13.65333333 31.89333333 12.05333333 57.17333333 21.44 77.33333333 52.37333334 10.66666667 16.32 23.14666667 45.76 22.08 93.01333333-0.32 15.04-1.92 27.41333333-3.30666666 35.09333333-2.45333333 14.50666667-5.44 27.2-17.81333334 35.62666667-6.08 4.26666667-12.8 6.18666667-19.30666666 6.18666667zM917.22666667 806.4z m12.37333333-15.89333333z m0 0z m0.10666667 0s-0.10666667 0 0 0c-0.10666667 0 0 0 0 0zM75.94666667 858.13333333c-6.61333333 0-13.22666667-1.92-19.09333334-5.86666666-12.37333333-8.32-15.36-21.01333333-17.81333333-35.52-1.28-7.68-2.88-19.94666667-3.30666667-35.09333334-0.64-26.13333333 2.77333333-63.46666667 22.08-93.01333333 20.16-30.82666667 45.33333333-40.32 77.33333334-52.37333333 10.13333333-3.84 21.54666667-8.10666667 34.77333333-13.65333334 19.2-8.10666667 31.89333333-17.92 35.52-23.57333333 8.21333333-12.69333333 5.65333333-30.29333333 3.62666667-37.97333333-1.28-1.49333333-2.66666667-2.98666667-4.26666667-4.69333334-4.16-4.37333333-9.28-9.92-14.82666667-18.02666666-14.82666667-22.08-18.66666667-41.92-23.46666666-67.09333334l-0.10666667-0.42666666c-0.42666667-0.64-0.96-1.49333333-1.38666667-2.13333334-7.04-10.77333333-14.61333333-24.42666667-16.32-49.92-1.6-24.64 3.62666667-37.65333333 8.85333334-47.78666666 0.42666667-66.56 12.48-118.50666667 35.84-154.34666667 21.33333333-32.74666667 54.18666667-55.14666667 92.58666666-63.14666667 18.45333333-3.84 36.58666667 8 40.42666667 26.34666667 3.84 18.45333333-8 36.58666667-26.34666667 40.42666667-20.48 4.26666667-37.97333333 16.21333333-49.38666666 33.70666666-16 24.42666667-24.74666667 67.2-24.74666667 120.42666667 0 13.33333333-4.8 22.50666667-7.36 27.52-1.49333333 2.88-2.24 4.16-1.6 12.48 0.64 9.81333333 2.24 12.26666667 5.44 17.17333333 3.52 5.33333333 8.74666667 13.33333333 10.98666667 25.28l0.32 1.70666667c4.48 23.25333333 6.29333333 31.78666667 13.01333333 41.70666667 2.45333333 3.62666667 4.8 6.18666667 8 9.6 3.62666667 3.84 8.10666667 8.64 12.69333333 15.14666666 7.57333333 10.66666667 10.98666667 31.89333333 11.73333334 42.66666667 1.92 25.49333333-3.62666667 49.28-16.10666667 68.58666667-16.53333333 25.6-48.64 42.02666667-66.34666667 49.49333333-14.50666667 6.18666667-26.66666667 10.66666667-37.33333333 14.72-28.69333333 10.77333333-36.58666667 14.08-44.16 25.81333333-16 24.42666667-10.88 71.36-7.68 84.37333334 4.58666667 10.34666667 3.84 22.82666667-2.98666667 32.85333333-6.93333333 9.38666667-17.6 14.61333333-28.58666666 14.61333333z m31.68-46.4z m-12.37333334-15.89333333z m-0.10666666 0c0.10666667 0 0.10666667 0 0 0 0.10666667 0 0.10666667 0 0 0z m0-0.10666667s0 0.10666667 0 0c0 0.10666667 0 0 0 0z" p-id="855"></path></svg>